<svg width="16" height="16" viewBox="0 0 58 57" fill="none" xmlns="http://www.w3.org/2000/svg">
<g clip-path="url(#clip0_1305_948)">
<path d="M48.0692 10.62L3.42922 17.75L2.69922 13.22L47.3292 6.08997L48.0692 10.62Z" fill="#889499"/>
<path d="M51.5393 22.46L15.8993 18.36C15.6593 18.36 15.4193 18.36 15.1793 18.36C13.6246 18.3644 12.1256 18.9389 10.9663 19.9747C9.80702 21.0105 9.06798 22.4357 8.88927 23.98L6.44927 45.47C6.26612 47.1341 6.74755 48.8032 7.78881 50.1141C8.83007 51.4251 10.3469 52.2718 12.0093 52.47L47.6493 56.57C47.889 56.5849 48.1295 56.5849 48.3693 56.57C49.9111 56.5598 51.3965 55.989 52.5484 54.9641C53.7003 53.9392 54.4399 52.5302 54.6293 51L57.0993 29.48C57.288 27.8127 56.8092 26.1384 55.7674 24.823C54.7256 23.5076 53.2055 22.6581 51.5393 22.46ZM48.3693 53.57H47.9693L12.3293 49.47C11.9056 49.4255 11.4952 49.2964 11.1225 49.0902C10.7497 48.8841 10.4222 48.6051 10.1593 48.27C9.88231 47.9303 9.67668 47.5383 9.55469 47.1173C9.4327 46.6964 9.39684 46.2551 9.44927 45.82L11.9393 24.3C12.0298 23.5025 12.4095 22.766 13.0066 22.2297C13.6037 21.6934 14.3767 21.3947 15.1793 21.39H15.5493L51.1893 25.49C52.0496 25.5927 52.8341 26.0326 53.3703 26.7132C53.9066 27.3938 54.1508 28.2595 54.0493 29.12L51.5693 50.66C51.488 51.454 51.1165 52.1901 50.5259 52.7271C49.9354 53.2641 49.1674 53.5643 48.3693 53.57Z" fill="#889499"/>
<path d="M55.3494 35.57L10.3994 30.83L10.8894 26.27L55.8394 31.01L55.3494 35.57Z" fill="#889499"/>
<path d="M48.4496 5.39994C48.2177 3.90722 47.4589 2.54691 46.3105 1.56547C45.1621 0.584033 43.7002 0.0463878 42.1896 0.0499443C41.8547 0.0517325 41.5205 0.0784732 41.1896 0.129944L5.7596 5.84994C5.52301 5.88789 5.28917 5.94134 5.0596 6.00994C3.5631 6.43186 2.27423 7.3898 1.43876 8.7011C0.603291 10.0124 0.279667 11.5853 0.529597 13.1199L3.9796 34.5099C4.18025 35.6682 4.69749 36.7483 5.47406 37.6308C6.25064 38.5133 7.25625 39.1637 8.3796 39.5099V36.1899C8.01552 35.937 7.70706 35.6122 7.47317 35.2356C7.23929 34.8589 7.08493 34.4384 7.0196 33.9999L3.5596 12.6299C3.44351 11.8454 3.61559 11.0455 4.04397 10.3781C4.47235 9.71068 5.12802 9.22109 5.8896 8.99994L6.2496 8.91994L41.6696 3.16994C41.8426 3.15547 42.0166 3.15547 42.1896 3.16994C42.9662 3.16727 43.7188 3.43855 44.3151 3.93607C44.9114 4.43358 45.3131 5.12545 45.4496 5.88994L48.5496 25.1399H51.6596L48.4496 5.39994Z" fill="#889499"/>
</g>
<defs>
<clipPath id="clip0_1305_948">
<rect width="56.69" height="56.69" fill="white" transform="translate(0.449219)"/>
</clipPath>
</defs>
</svg>
