<svg width="16" height="16" viewBox="0 0 58 58" fill="none" xmlns="http://www.w3.org/2000/svg">
<g clip-path="url(#clip0_1305_968)">
<path d="M56.5795 9.47995C56.4114 9.31189 56.2119 9.17858 55.9923 9.08764C55.7726 8.9967 55.5373 8.94992 55.2995 8.94995C55.0634 8.95014 54.8295 8.99707 54.6116 9.08803C54.3936 9.17899 54.1958 9.31219 54.0295 9.47995L28.3995 35.1L17.6895 24.39C17.5214 24.2219 17.3219 24.0886 17.1023 23.9976C16.8826 23.9067 16.6473 23.8599 16.4095 23.86C16.1734 23.8601 15.9395 23.9071 15.7216 23.998C15.5036 24.089 15.3058 24.2222 15.1395 24.39C14.8031 24.729 14.6143 25.1873 14.6143 25.665C14.6143 26.1426 14.8031 26.6009 15.1395 26.94L27.1396 38.94C27.3063 39.1064 27.5044 39.238 27.7224 39.3273C27.9404 39.4165 28.174 39.4616 28.4095 39.46C28.6473 39.4605 28.8829 39.414 29.1026 39.323C29.3223 39.2321 29.5218 39.0985 29.6895 38.93L56.5896 12.02C56.9241 11.6813 57.1108 11.2239 57.109 10.7479C57.1071 10.2719 56.9167 9.81596 56.5795 9.47995Z" fill="#00C246"/>
<path d="M55.4997 19.6899C55.3393 19.2364 55.0052 18.8652 54.5711 18.6579C54.1369 18.4507 53.6382 18.4244 53.1847 18.5849C52.7312 18.7453 52.36 19.0794 52.1528 19.5135C51.9455 19.9477 51.9193 20.4464 52.0797 20.8999C54.0925 26.5973 53.9252 32.8381 51.61 38.4195C49.2948 44.0009 44.9956 48.5278 39.541 51.1277C34.0865 53.7276 27.8626 54.2165 22.069 52.5002C16.2753 50.7838 11.322 46.9838 8.16374 41.8323C5.00546 36.6809 3.86574 30.5428 4.96424 24.6009C6.06275 18.6591 9.32172 13.3342 14.113 9.65244C18.9044 5.97071 24.8889 4.19277 30.9132 4.66129C36.9376 5.12982 42.5752 7.81165 46.7397 12.1899C46.9038 12.362 47.1002 12.5001 47.3177 12.5963C47.5352 12.6924 47.7696 12.7448 48.0073 12.7504C48.245 12.7559 48.4815 12.7146 48.7033 12.6287C48.9251 12.5429 49.1277 12.4141 49.2997 12.2499C49.4718 12.0858 49.6099 11.8894 49.7061 11.6719C49.8023 11.4544 49.8546 11.2201 49.8602 10.9823C49.8658 10.7446 49.8244 10.5081 49.7386 10.2863C49.6527 10.0645 49.524 9.86188 49.3597 9.68989C44.8648 4.96497 38.8644 1.95325 32.3899 1.17231C25.9154 0.391363 19.371 1.88997 13.8815 5.41059C8.39199 8.93121 4.30019 14.254 2.30928 20.4641C0.318382 26.6742 0.552722 33.3839 2.97203 39.44C5.39134 45.4961 9.84453 50.5204 15.5663 53.6495C21.288 56.7785 27.921 57.8169 34.3253 56.5862C40.7296 55.3554 46.5052 51.9324 50.6595 46.9054C54.8139 41.8784 57.0875 35.5614 57.0897 29.0399C57.0914 25.8558 56.5538 22.6944 55.4997 19.6899Z" fill="#00C246"/>
</g>
<defs>
<clipPath id="clip0_1305_968">
<rect width="56.69" height="56.69" fill="white" transform="translate(0.689453 0.689941)"/>
</clipPath>
</defs>
</svg>
