<svg width="24" height="21" viewBox="0 0 24 21" fill="none" xmlns="http://www.w3.org/2000/svg">
<path d="M23.8544 18.9772L21.252 14.9286V9.73195C21.252 4.57985 17.1014 0.388367 12 0.388367C6.89831 0.388367 2.74807 4.57985 2.74807 9.73195V14.9286L0.145629 18.9769C-0.0357612 19.2587 -0.0485542 19.6172 0.112035 19.9112C0.272623 20.2053 0.580748 20.3885 0.916018 20.3885H23.0841C23.4193 20.3885 23.7274 20.2053 23.8877 19.9115C24.0486 19.6175 24.0358 19.259 23.8544 18.9772ZM2.59383 18.5564L4.43446 15.6929C4.52942 15.5454 4.58012 15.3732 4.58012 15.1976V9.73195C4.58012 5.59023 7.9087 2.22047 12 2.22047C16.0917 2.22047 19.4199 5.59029 19.4199 9.73195V15.1976C19.4199 15.3732 19.4703 15.5451 19.5653 15.6929L21.4059 18.5564H2.59383Z" fill="#165C7D"/>
</svg>
