<svg width="24" height="27" viewBox="0 0 24 27" fill="none" xmlns="http://www.w3.org/2000/svg">
<path d="M12.0003 0C10.0473 0 8.45825 1.58904 8.45825 3.542V4.61068H10.2903V3.542C10.2903 2.59911 11.0576 1.83205 12.0003 1.83205C12.9431 1.83205 13.7105 2.59906 13.7105 3.542V4.61068H15.5426V3.542C15.5426 1.58904 13.9533 0 12.0003 0Z" fill="#165C7D"/>
<path d="M14.5038 22.3214C14.5038 23.6854 13.3942 24.795 12.0305 24.795H11.9694C10.6058 24.795 9.49612 23.6854 9.49612 22.3214H7.66406C7.66406 24.6958 9.59539 26.6271 11.9694 26.6271H12.0305C14.4045 26.6271 16.3359 24.6958 16.3359 22.3214H14.5038Z" fill="#165C7D"/>
<path d="M23.8544 21.9772L21.252 17.9287V12.732C21.252 7.57991 17.1014 3.38843 12 3.38843C6.89831 3.38843 2.74807 7.57991 2.74807 12.732V17.9287L0.145629 21.9769C-0.0357612 22.2587 -0.0485542 22.6173 0.112035 22.9113C0.272623 23.2053 0.580748 23.3885 0.916018 23.3885H23.0841C23.4193 23.3885 23.7274 23.2053 23.8877 22.9116C24.0486 22.6176 24.0358 22.2591 23.8544 21.9772ZM2.59383 21.5565L4.43446 18.693C4.52942 18.5455 4.58012 18.3733 4.58012 18.1977V12.732C4.58012 8.59029 7.9087 5.22053 12 5.22053C16.0917 5.22053 19.4199 8.59035 19.4199 12.732V18.1977C19.4199 18.3733 19.4703 18.5452 19.5653 18.693L21.4059 21.5565H2.59383Z" fill="#165C7D"/>
</svg>
